<svg width="74" height="96" viewBox="0 0 74 96" fill="none" xmlns="http://www.w3.org/2000/svg">
<g id="Networks">
<path id="Vector" d="M6.42494 33.2674L6.42495 33.2674L32.2656 78.0564C32.2656 78.0564 32.2656 78.0565 32.2656 78.0565C34.1442 81.3145 38.8517 81.3145 40.7302 78.0564L66.5761 33.2674L66.143 33.0175L66.5761 33.2674C70.6384 26.2275 65.5115 17.5 57.4381 17.5H57.4328H15.5629C7.48454 17.5 2.35725 26.2167 6.42494 33.2674ZM15.5577 26.151H32.1724V62.3081L27.4942 53.254L27.4905 53.2467L27.4864 53.2395L13.9074 28.9533L13.9075 28.9532L13.9042 28.9476C13.1999 27.7254 14.0678 26.151 15.5577 26.151ZM59.081 28.9424L59.081 28.9423L59.0777 28.9482L45.504 53.2449L45.5 53.252L45.4963 53.2592L40.8129 62.3191V26.1458H57.4276C58.9174 26.1458 59.7854 27.7201 59.081 28.9424Z" fill="white" stroke="white"/>
</g>
</svg>
